<?xml version="1.0" standalone="no"?>
<!DOCTYPE svg PUBLIC "-//W3C//DTD SVG 20010904//EN"
 "http://www.w3.org/TR/2001/REC-SVG-20010904/DTD/svg10.dtd">
<svg version="1.0" xmlns="http://www.w3.org/2000/svg"
 width="1280.000000pt" height="640.000000pt" viewBox="0 0 1280.000000 640.000000"
 preserveAspectRatio="xMidYMid meet">
<metadata>
Created by potrace 1.15, written by Peter Selinger 2001-2017
</metadata>
<g transform="translate(0.000000,640.000000) scale(0.100000,-0.100000)"
fill="#000000" stroke="none">
<path d="M6155 5419 c-27 -5 -133 -20 -235 -34 -1050 -146 -1701 -312 -1870
-476 -22 -22 -40 -47 -40 -57 0 -65 157 -125 650 -252 334 -86 496 -142 556
-194 35 -31 38 -35 27 -59 -34 -75 -288 -139 -1253 -317 -112 -21 -248 -45
-450 -80 -69 -12 -172 -30 -230 -40 -58 -10 -159 -28 -225 -39 -1182 -205
-1892 -364 -2530 -565 -439 -140 -610 -283 -537 -449 133 -300 998 -640 2762
-1085 373 -94 482 -121 845 -207 83 -19 168 -40 190 -45 22 -6 272 -64 555
-130 751 -175 1047 -248 1210 -298 l95 -29 1728 -7 1727 -7 172 -35 c95 -19
173 -34 174 -34 1 0 5 16 9 36 l6 36 1652 -6 c909 -3 1648 -4 1642 -1 -5 2
-95 21 -200 40 -434 82 -722 135 -915 170 -113 20 -302 54 -420 75 -118 22
-296 53 -395 70 -170 29 -245 42 -517 90 -62 10 -207 35 -323 55 -115 20 -313
53 -440 75 -126 22 -364 62 -527 90 -164 27 -430 72 -590 100 -161 27 -441 74
-623 105 -181 31 -382 65 -445 76 -269 47 -343 60 -485 84 -344 59 -1051 187
-1462 266 -57 10 -149 28 -205 38 -57 11 -213 43 -348 71 -135 28 -265 55
-290 60 -337 66 -917 213 -1130 287 -351 121 -466 208 -385 289 49 49 64 54
915 304 52 15 172 51 265 78 94 28 258 76 365 107 107 31 251 74 320 95 69 21
217 66 330 100 113 34 255 77 315 97 61 19 164 52 230 73 626 199 688 222 741
275 16 16 24 36 24 58 0 116 -340 242 -1095 406 -743 161 -867 193 -934 240
-163 117 180 240 1069 385 141 23 618 97 670 104 l45 6 -40 7 c-49 10 -86 9
-150 -2z"/>
</g>
</svg>
