<?xml version="1.0" encoding="utf-8"?>
<svg width="16" height="16" fill="currentColor" class="bi bi-diagram-3" viewBox="0 0 16 16" xmlns="http://www.w3.org/2000/svg">
  <path fill-rule="evenodd" d="M 6 3.5 C 6 2.672 6.672 2 7.5 2 L 8.5 2 C 9.328 2 10 2.672 10 3.5 L 10 4.5 C 10 5.328 9.328 6 8.5 6 L 8.5 7 L 14 7 C 14.276 7 14.5 7.224 14.5 7.5 L 14.5 8.5 C 14.5 8.885 14.083 9.125 13.75 8.933 C 13.595 8.844 13.5 8.679 13.5 8.5 L 13.5 8 L 8.5 8 L 8.5 8.5 C 8.5 8.885 8.083 9.125 7.75 8.933 C 7.595 8.844 7.5 8.679 7.5 8.5 L 7.5 8 L 2.5 8 L 2.5 8.5 C 2.5 8.885 2.083 9.125 1.75 8.933 C 1.595 8.844 1.5 8.679 1.5 8.5 L 1.5 7.5 C 1.5 7.224 1.724 7 2 7 L 7.5 7 L 7.5 6 C 6.672 6 6 5.328 6 4.5 L 6 3.5 Z M 8.5 5 C 8.776 5 9 4.776 9 4.5 L 9 3.5 C 9 3.224 8.776 3 8.5 3 L 7.5 3 C 7.224 3 7 3.224 7 3.5 L 7 4.5 C 7 4.776 7.224 5 7.5 5 L 8.5 5 Z M 0 11.5 C 0 10.672 0.672 10 1.5 10 L 2.5 10 C 3.328 10 4 10.672 4 11.5 L 4 12.5 C 4 13.328 3.328 14 2.5 14 L 1.5 14 C 0.672 14 0 13.328 0 12.5 L 0 11.5 Z M 1.5 11 C 1.224 11 1 11.224 1 11.5 L 1 12.5 C 1 12.776 1.224 13 1.5 13 L 2.5 13 C 2.776 13 3 12.776 3 12.5 L 3 11.5 C 3 11.224 2.776 11 2.5 11 L 1.5 11 Z M 6 11.5 C 6 10.672 6.672 10 7.5 10 L 8.5 10 C 9.328 10 10 10.672 10 11.5 L 10 12.5 C 10 13.328 9.328 14 8.5 14 L 7.5 14 C 6.672 14 6 13.328 6 12.5 L 6 11.5 Z M 7.5 11 C 7.224 11 7 11.224 7 11.5 L 7 12.5 C 7 12.776 7.224 13 7.5 13 L 8.5 13 C 8.776 13 9 12.776 9 12.5 L 9 11.5 C 9 11.224 8.776 11 8.5 11 L 7.5 11 Z M 12 11.5 C 12 10.672 12.672 10 13.5 10 L 14.5 10 C 15.328 10 16 10.672 16 11.5 L 16 12.5 C 16 13.328 15.328 14 14.5 14 L 13.5 14 C 12.672 14 12 13.328 12 12.5 L 12 11.5 Z M 13.5 11 C 13.224 11 13 11.224 13 11.5 L 13 12.5 C 13 12.776 13.224 13 13.5 13 L 14.5 13 C 14.776 13 15 12.776 15 12.5 L 15 11.5 C 15 11.224 14.776 11 14.5 11 L 13.5 11 Z" style="transform-box: fill-box; transform-origin: 50% 50%;" transform="matrix(0, -1, 1, 0, 0, 0)"/>
</svg>