<?xml version="1.0" encoding="UTF-8" standalone="no"?>
<!-- Created with Inkscape (http://www.inkscape.org/) -->

<svg
   version="1.1"
   id="svg2"
   width="90%"
   height="90%"
   viewBox="0 0 801.41301 368.30667"
   xmlns="http://www.w3.org/2000/svg"
   xmlns:svg="http://www.w3.org/2000/svg">
  <defs
     id="defs6">
    <clipPath
       clipPathUnits="userSpaceOnUse"
       id="clipPath18">
      <path
         d="M 0,595.276 H 841.89 V 0 H 0 Z"
         id="path16" />
    </clipPath>
  </defs>
  <g
     id="g10"
     transform="matrix(1.3333333,0,0,-1.3333333,-110.07613,604.15252)">
    <g
       id="g12">
      <g
         id="g14"
         clip-path="url(#clipPath18)">
        <g
           id="g20"
           transform="translate(674.8439,244.5313)">
          <path
             d="M 0,0 H -307.44 V 131.745 H 0 c 4.845,0 8.773,-3.928 8.773,-8.773 V 8.773 C 8.773,3.928 4.845,0 0,0"
             style="fill:#3871c1;fill-opacity:1;fill-rule:nonzero;stroke:none"
             id="path22" />
        </g>
        <g
           id="g24"
           transform="translate(154.9068,245.0207)">
          <path
             d="M 0,0 H 75.753 V 131.745 H 0 c -2.44,0 -4.417,-1.978 -4.417,-4.418 V 4.417 C -4.417,1.978 -2.44,0 0,0"
             style="fill:#3871c1;fill-opacity:1;fill-rule:nonzero;stroke:none"
             id="path26" />
        </g>
        <g
           id="g28"
           transform="translate(473.0791,316.2662)">
          <path
             d="m 0,0 c 0,-74.346 -60.269,-134.615 -134.615,-134.615 -74.346,0 -134.616,60.269 -134.616,134.615 0,74.346 60.27,134.615 134.616,134.615 C -60.269,134.615 0,74.346 0,0"
             style="fill:#3871c1;fill-opacity:1;fill-rule:nonzero;stroke:none"
             id="path30" />
        </g>
        <g
           id="g32"
           transform="translate(270.5107,428.3611)">
          <path
             d="m 0,0 c -1.86,-9.785 -14.977,-85.143 34.043,-138.894 34.693,-38.041 84.408,-47.603 99.744,-50.553 16.826,-3.236 31.217,-3.745 41.362,-3.574 -5.195,-6.855 -37.205,-47.664 -94.468,-53.107 -51.02,-4.849 -87.106,21.702 -97.021,29.617 -10.118,8.077 -45.692,38.842 -50.554,89.362 C -71.636,-77.869 -45.332,-28.715 0,0"
             style="fill:#50ade5;fill-opacity:1;fill-rule:nonzero;stroke:none"
             id="path34" />
        </g>
        <g
           id="g36"
           transform="translate(430.1209,414.5739)">
          <path
             d="m 0,0 c -6.683,-5.258 -13.323,-10.866 -19.883,-16.851 -69.116,-63.053 -101.989,-142.88 -118.28,-207.83 12.313,-4.257 40.712,-12.203 75.454,-4.596 10.628,2.328 48.868,10.62 76.474,46.468 6.173,8.016 32.678,44.256 28.041,96 C 37.389,-37.52 7.692,-7.368 0,0"
             style="fill:#24265d;fill-opacity:1;fill-rule:nonzero;stroke:none"
             id="path38" />
        </g>
        <g
           id="g40"
           transform="translate(311.8723,253.2122)">
          <path
             d="m 0,0 c 22.239,-13.596 51.654,-27.679 87.83,-35.745 9.221,-2.055 18.097,-3.546 26.553,-4.595 -9.981,-7.872 -32.03,-23.095 -64.34,-28.596 -32.18,-5.479 -57.931,1.513 -69.958,5.617 1.929,10.315 4.691,21.845 8.681,34.213 C -7.745,-18.293 -3.875,-8.573 0,0"
             style="fill:#3871c1;fill-opacity:1;fill-rule:nonzero;stroke:none"
             id="path42" />
        </g>
        <g
           id="g44"
           transform="translate(403.0995,280.0001)">
          <path
             d="m 0,0 c 4.978,22.205 7.69,46.759 6.269,73.198 -0.149,2.779 -0.341,5.527 -0.573,8.242 -2.072,0.245 -4.16,0.521 -6.263,0.828 -25.541,3.734 -48.227,11.424 -67.989,20.878 -20.602,-9.848 -43.777,-17.579 -69.504,-21.343 -1.708,-0.25 -3.407,-0.48 -5.098,-0.689 -0.165,-1.814 -0.311,-3.641 -0.437,-5.48 -1.827,-26.725 0.863,-51.954 6.359,-75.305 6.532,-8.247 16.817,-19.323 31.926,-29.624 13.75,-9.374 26.903,-14.975 36.754,-18.355 9.868,3.398 23.008,9.006 36.755,18.355 C -16.832,-19.115 -6.57,-8.191 0,0"
             style="fill:#ffffff;fill-opacity:1;fill-rule:nonzero;stroke:none"
             id="path46" />
        </g>
        <g
           id="g48"
           transform="translate(403.0995,280.0001)">
          <path
             d="m 0,0 c 4.978,22.205 7.69,46.759 6.269,73.198 -0.149,2.779 -0.341,5.527 -0.573,8.242 -2.072,0.245 -4.16,0.521 -6.263,0.828 -25.541,3.734 -48.227,11.424 -67.989,20.878 -20.602,-9.848 -43.777,-17.579 -69.504,-21.343 -1.708,-0.25 -3.407,-0.48 -5.098,-0.689 -0.165,-1.814 -0.311,-3.641 -0.437,-5.48 -1.827,-26.725 0.863,-51.954 6.359,-75.305 6.532,-8.247 16.817,-19.323 31.926,-29.624 13.75,-9.374 26.903,-14.975 36.754,-18.355 9.868,3.398 23.008,9.006 36.755,18.355 C -16.832,-19.115 -6.57,-8.191 0,0 Z"
             style="fill:none;stroke:#3871c1;stroke-width:8;stroke-linecap:butt;stroke-linejoin:miter;stroke-miterlimit:10;stroke-dasharray:none;stroke-opacity:1"
             id="path50" />
        </g>
        <g
           id="g52"
           transform="translate(291.5238,308.2884)">
          <path
             d="M 0,0 14.108,13.657 38.356,-7.549 82.442,70.75 95.668,31.6 47.834,-53.223 Z"
             style="fill:#24265d;fill-opacity:1;fill-rule:nonzero;stroke:none"
             id="path54" />
        </g>
        <g
           id="g56"
           transform="translate(291.5238,308.2884)">
          <path
             d="M 0,0 14.108,13.657 38.356,-7.549 82.442,70.75 95.668,31.6 47.834,-53.223 Z"
             style="fill:none;stroke:#ffffff;stroke-width:4;stroke-linecap:butt;stroke-linejoin:miter;stroke-miterlimit:10;stroke-dasharray:none;stroke-opacity:1"
             id="path58" />
        </g>
        <g
           id="g60"
           transform="translate(497.7888,352.8657)">
          <path
             d="m 0,0 c -1.599,0 -3.074,-0.285 -4.426,-0.852 -1.351,-0.57 -2.511,-1.397 -3.478,-2.481 -0.968,-1.086 -1.724,-2.426 -2.267,-4.018 -0.544,-1.594 -0.816,-3.415 -0.816,-5.465 0,-2.033 0.248,-3.82 0.744,-5.362 0.495,-1.542 1.207,-2.829 2.135,-3.863 0.927,-1.033 2.059,-1.814 3.394,-2.339 1.335,-0.525 2.851,-0.788 4.546,-0.788 1.215,0 2.455,0.104 3.718,0.31 1.263,0.207 2.447,0.509 3.551,0.904 v -5.451 c -1.12,-0.345 -2.327,-0.616 -3.623,-0.815 -1.295,-0.197 -2.638,-0.296 -4.03,-0.296 -2.719,0 -5.109,0.418 -7.172,1.253 -2.064,0.835 -3.787,2.016 -5.17,3.54 -1.383,1.525 -2.423,3.35 -3.118,5.478 -0.697,2.127 -1.044,4.474 -1.044,7.041 0,2.636 0.372,5.082 1.115,7.338 0.744,2.257 1.815,4.212 3.215,5.866 1.399,1.654 3.15,2.954 5.254,3.902 2.102,0.947 4.481,1.429 7.136,1.447 1.359,0 2.647,-0.1 3.862,-0.297 C 4.742,4.854 5.837,4.573 6.813,4.212 V -1.162 C 5.533,-0.732 4.342,-0.43 3.239,-0.258 2.135,-0.086 1.056,0 0,0"
             style="fill:#ffffff;fill-opacity:1;fill-rule:nonzero;stroke:none"
             id="path62" />
        </g>
        <g
           id="g64"
           transform="translate(523.9849,343.1754)">
          <path
             d="M 0,0 H -0.48 C -2.223,0 -3.754,-0.28 -5.074,-0.84 -6.393,-1.4 -7.413,-2.256 -8.132,-3.411 V -20.18 h -5.686 V 4.858 h 4.702 L -8.588,1.37 h 0.096 c 0.672,1.275 1.595,2.278 2.771,3.01 1.175,0.732 2.586,1.098 4.234,1.098 0.575,0 1.071,-0.034 1.487,-0.103 z"
             style="fill:#ffffff;fill-opacity:1;fill-rule:nonzero;stroke:none"
             id="path66" />
        </g>
        <g
           id="g68"
           transform="translate(543.6318,335.5016)">
          <path
             d="M 0,0 C 0,1.327 -0.144,2.497 -0.432,3.514 -0.72,4.531 -1.12,5.383 -1.631,6.073 -2.143,6.762 -2.759,7.278 -3.478,7.623 -4.198,7.967 -4.982,8.14 -5.829,8.14 -6.661,8.14 -7.433,7.967 -8.144,7.623 -8.856,7.278 -9.468,6.762 -9.979,6.073 -10.492,5.383 -10.891,4.531 -11.179,3.514 -11.467,2.497 -11.611,1.327 -11.611,0 c 0,-1.327 0.144,-2.497 0.432,-3.514 0.288,-1.017 0.692,-1.865 1.212,-2.545 0.519,-0.681 1.135,-1.198 1.847,-1.55 0.711,-0.354 1.491,-0.531 2.339,-0.531 0.847,0 1.623,0.177 2.327,0.531 0.703,0.352 1.311,0.869 1.823,1.55 0.511,0.68 0.911,1.528 1.199,2.545 C -0.144,-2.497 0,-1.327 0,0 M 5.877,0 C 5.877,-1.964 5.605,-3.756 5.062,-5.375 4.518,-6.994 3.738,-8.38 2.723,-9.534 1.707,-10.689 0.48,-11.58 -0.96,-12.209 c -1.439,-0.628 -3.046,-0.943 -4.821,-0.943 -1.823,0 -3.459,0.315 -4.906,0.943 -1.448,0.629 -2.675,1.52 -3.682,2.675 -1.008,1.154 -1.779,2.54 -2.315,4.159 -0.536,1.619 -0.804,3.411 -0.804,5.375 0,1.964 0.272,3.756 0.816,5.375 0.543,1.619 1.323,3.005 2.339,4.159 1.015,1.155 2.243,2.046 3.682,2.675 1.439,0.628 3.047,0.943 4.822,0.943 1.823,0 3.458,-0.315 4.905,-0.943 C 0.524,11.58 1.751,10.689 2.759,9.534 3.766,8.38 4.538,6.994 5.073,5.375 5.609,3.756 5.877,1.964 5.877,0"
             style="fill:#ffffff;fill-opacity:1;fill-rule:nonzero;stroke:none"
             id="path70" />
        </g>
        <g
           id="g72"
           transform="translate(564.8381,330.2556)">
          <path
             d="M 0,0 C 0,0.535 -0.14,0.973 -0.42,1.318 -0.7,1.663 -1.072,1.951 -1.535,2.184 -1.999,2.416 -2.531,2.619 -3.131,2.791 -3.73,2.964 -4.358,3.136 -5.014,3.307 -5.845,3.549 -6.645,3.828 -7.413,4.148 -8.18,4.467 -8.856,4.884 -9.439,5.401 c -0.584,0.517 -1.048,1.166 -1.392,1.951 -0.344,0.784 -0.516,1.743 -0.516,2.88 0,1.397 0.232,2.607 0.696,3.632 0.463,1.024 1.091,1.873 1.883,2.545 0.791,0.671 1.711,1.171 2.759,1.498 1.047,0.327 2.155,0.491 3.322,0.491 1.423,0 2.759,-0.125 4.006,-0.375 1.248,-0.25 2.375,-0.572 3.383,-0.969 v -4.986 c -0.528,0.189 -1.084,0.366 -1.667,0.529 -0.584,0.163 -1.176,0.306 -1.775,0.426 -0.601,0.121 -1.196,0.22 -1.788,0.297 -0.592,0.079 -1.151,0.117 -1.679,0.117 -0.672,0 -1.24,-0.069 -1.703,-0.207 -0.464,-0.137 -0.84,-0.323 -1.128,-0.555 -0.288,-0.233 -0.496,-0.5 -0.623,-0.801 -0.129,-0.302 -0.192,-0.616 -0.192,-0.943 0,-0.569 0.14,-1.034 0.419,-1.396 C -5.154,9.174 -4.766,8.88 -4.27,8.657 -3.775,8.433 -3.255,8.248 -2.711,8.101 -2.167,7.954 -1.64,7.813 -1.128,7.675 -0.328,7.468 0.471,7.218 1.271,6.925 2.071,6.633 2.791,6.224 3.43,5.698 4.07,5.172 4.594,4.492 5.002,3.657 5.409,2.821 5.613,1.757 5.613,0.466 5.613,-0.947 5.365,-2.179 4.87,-3.229 4.374,-4.28 3.682,-5.154 2.795,-5.852 1.907,-6.55 0.844,-7.066 -0.396,-7.403 c -1.239,-0.335 -2.603,-0.503 -4.09,-0.503 -1.472,0 -2.794,0.125 -3.97,0.375 -1.175,0.25 -2.147,0.564 -2.915,0.942 v 4.935 c 1.248,-0.499 2.399,-0.839 3.455,-1.02 1.055,-0.181 2.039,-0.271 2.95,-0.271 0.704,0 1.359,0.055 1.967,0.168 0.608,0.112 1.132,0.288 1.572,0.529 0.44,0.242 0.787,0.547 1.043,0.918 C -0.128,-0.96 0,-0.517 0,0"
             style="fill:#ffffff;fill-opacity:1;fill-rule:nonzero;stroke:none"
             id="path74" />
        </g>
        <g
           id="g76"
           transform="translate(585.6606,330.2556)">
          <path
             d="M 0,0 C 0,0.535 -0.14,0.973 -0.42,1.318 -0.7,1.663 -1.072,1.951 -1.535,2.184 -1.999,2.416 -2.531,2.619 -3.131,2.791 -3.73,2.964 -4.358,3.136 -5.014,3.307 -5.845,3.549 -6.645,3.828 -7.413,4.148 -8.18,4.467 -8.856,4.884 -9.439,5.401 c -0.584,0.517 -1.048,1.166 -1.392,1.951 -0.344,0.784 -0.516,1.743 -0.516,2.88 0,1.397 0.232,2.607 0.696,3.632 0.463,1.024 1.091,1.873 1.883,2.545 0.791,0.671 1.711,1.171 2.759,1.498 1.047,0.327 2.155,0.491 3.322,0.491 1.423,0 2.759,-0.125 4.006,-0.375 1.248,-0.25 2.376,-0.572 3.383,-0.969 v -4.986 c -0.527,0.189 -1.084,0.366 -1.667,0.529 -0.584,0.163 -1.176,0.306 -1.775,0.426 -0.601,0.121 -1.196,0.22 -1.788,0.297 -0.592,0.079 -1.151,0.117 -1.679,0.117 -0.672,0 -1.24,-0.069 -1.703,-0.207 -0.464,-0.137 -0.84,-0.323 -1.128,-0.555 -0.288,-0.233 -0.496,-0.5 -0.623,-0.801 -0.129,-0.302 -0.192,-0.616 -0.192,-0.943 0,-0.569 0.14,-1.034 0.419,-1.396 C -5.154,9.174 -4.766,8.88 -4.27,8.657 -3.775,8.433 -3.255,8.248 -2.711,8.101 -2.167,7.954 -1.64,7.813 -1.127,7.675 -0.328,7.468 0.471,7.218 1.271,6.925 2.071,6.633 2.791,6.224 3.43,5.698 4.07,5.172 4.594,4.492 5.002,3.657 5.409,2.821 5.614,1.757 5.614,0.466 5.614,-0.947 5.365,-2.179 4.87,-3.229 4.374,-4.28 3.682,-5.154 2.795,-5.852 1.907,-6.55 0.844,-7.066 -0.396,-7.403 c -1.239,-0.335 -2.603,-0.503 -4.09,-0.503 -1.472,0 -2.794,0.125 -3.97,0.375 -1.175,0.25 -2.147,0.564 -2.915,0.942 v 4.935 c 1.248,-0.499 2.399,-0.839 3.455,-1.02 1.055,-0.181 2.039,-0.271 2.95,-0.271 0.704,0 1.359,0.055 1.967,0.168 0.608,0.112 1.132,0.288 1.572,0.529 0.44,0.242 0.787,0.547 1.043,0.918 C -0.128,-0.96 0,-0.517 0,0"
             style="fill:#ffffff;fill-opacity:1;fill-rule:nonzero;stroke:none"
             id="path78" />
        </g>
        <g
           id="g80"
           transform="translate(513.6594,300.2895)">
          <path
             d="m 0,0 c -1.651,0 -3.172,-0.294 -4.567,-0.879 -1.394,-0.588 -2.59,-1.441 -3.588,-2.559 -0.998,-1.121 -1.777,-2.503 -2.338,-4.145 -0.562,-1.645 -0.841,-3.524 -0.841,-5.639 0,-2.096 0.255,-3.94 0.766,-5.531 0.511,-1.591 1.246,-2.918 2.203,-3.984 0.957,-1.067 2.125,-1.872 3.501,-2.414 1.378,-0.542 2.942,-0.812 4.69,-0.812 1.254,0 2.533,0.106 3.837,0.319 1.303,0.214 2.524,0.525 3.662,0.933 v -5.624 c -1.155,-0.356 -2.401,-0.636 -3.737,-0.84 -1.336,-0.204 -2.722,-0.306 -4.158,-0.306 -2.805,0 -5.27,0.431 -7.399,1.293 -2.128,0.861 -3.906,2.079 -5.333,3.651 -1.427,1.573 -2.5,3.457 -3.217,5.651 -0.718,2.195 -1.077,4.617 -1.077,7.264 0,2.72 0.384,5.243 1.151,7.57 0.767,2.329 1.872,4.346 3.316,6.052 1.444,1.706 3.25,3.048 5.42,4.026 2.17,0.977 4.623,1.474 7.363,1.492 1.402,0 2.73,-0.103 3.983,-0.306 C 4.891,5.007 6.021,4.718 7.028,4.346 V -1.199 C 5.708,-0.755 4.479,-0.444 3.34,-0.267 2.202,-0.089 1.089,0 0,0"
             style="fill:#ffffff;fill-opacity:1;fill-rule:nonzero;stroke:none"
             id="path82" />
        </g>
        <g
           id="g84"
           transform="translate(543.2322,282.3763)">
          <path
             d="m 0,0 c 0,1.369 -0.148,2.576 -0.445,3.625 -0.297,1.049 -0.71,1.928 -1.238,2.64 -0.528,0.71 -1.162,1.243 -1.905,1.599 -0.742,0.355 -1.551,0.533 -2.425,0.533 -0.859,0 -1.655,-0.178 -2.388,-0.533 -0.734,-0.356 -1.366,-0.889 -1.894,-1.599 -0.528,-0.712 -0.94,-1.591 -1.237,-2.64 -0.297,-1.049 -0.446,-2.256 -0.446,-3.625 0,-1.369 0.149,-2.576 0.446,-3.625 0.297,-1.049 0.714,-1.924 1.25,-2.626 0.536,-0.703 1.171,-1.236 1.905,-1.599 0.735,-0.365 1.539,-0.547 2.413,-0.547 0.874,0 1.674,0.182 2.4,0.547 0.727,0.363 1.353,0.896 1.881,1.599 0.528,0.702 0.941,1.577 1.238,2.626 C -0.148,-2.576 0,-1.369 0,0 m 6.064,0 c 0,-2.026 -0.281,-3.874 -0.842,-5.545 -0.561,-1.67 -1.365,-3.1 -2.413,-4.291 -1.047,-1.191 -2.314,-2.11 -3.799,-2.759 -1.485,-0.648 -3.142,-0.973 -4.974,-0.973 -1.88,0 -3.567,0.325 -5.06,0.973 -1.494,0.649 -2.76,1.568 -3.799,2.759 -1.04,1.191 -1.836,2.621 -2.388,4.291 -0.554,1.671 -0.829,3.519 -0.829,5.545 0,2.026 0.279,3.874 0.841,5.545 0.561,1.67 1.365,3.1 2.413,4.291 1.048,1.191 2.313,2.11 3.798,2.759 1.485,0.648 3.144,0.973 4.975,0.973 1.881,0 3.568,-0.325 5.06,-0.973 C 0.54,11.946 1.807,11.027 2.846,9.836 3.886,8.645 4.682,7.215 5.234,5.545 5.787,3.874 6.064,2.026 6.064,0"
             style="fill:#ffffff;fill-opacity:1;fill-rule:nonzero;stroke:none"
             id="path86" />
        </g>
        <g
           id="g88"
           transform="translate(585.3778,285.2019)">
          <path
             d="m 0,0 c 0,0.551 -0.017,1.066 -0.049,1.546 -0.034,0.48 -0.091,0.898 -0.174,1.253 -0.182,0.782 -0.537,1.413 -1.064,1.893 -0.528,0.479 -1.271,0.729 -2.227,0.746 -0.512,0 -1.04,-0.08 -1.584,-0.241 C -5.642,5.039 -6.183,4.811 -6.719,4.519 -7.256,4.225 -7.767,3.869 -8.254,3.452 -8.74,3.034 -9.182,2.568 -9.578,2.053 v -17.78 h -5.865 V 0 c 0,0.551 -0.017,1.066 -0.049,1.546 -0.033,0.48 -0.091,0.898 -0.174,1.253 -0.182,0.782 -0.531,1.413 -1.051,1.893 -0.519,0.479 -1.267,0.729 -2.24,0.746 -0.512,0 -1.039,-0.08 -1.584,-0.241 -0.544,-0.158 -1.084,-0.386 -1.621,-0.678 -0.536,-0.294 -1.047,-0.65 -1.534,-1.067 -0.487,-0.418 -0.928,-0.884 -1.324,-1.399 v -17.78 h -5.865 v 25.829 h 4.851 l 0.544,-3.598 h 0.099 c 0.346,0.533 0.783,1.058 1.311,1.572 0.528,0.516 1.126,0.97 1.795,1.36 0.668,0.391 1.402,0.707 2.202,0.947 0.8,0.239 1.646,0.359 2.536,0.359 1.584,0 3.008,-0.377 4.27,-1.133 1.262,-0.755 2.222,-1.932 2.883,-3.531 h 0.099 c 0.462,0.693 0.978,1.324 1.546,1.892 0.57,0.569 1.2,1.057 1.893,1.466 0.693,0.41 1.44,0.729 2.241,0.96 0.8,0.231 1.653,0.346 2.56,0.346 1.717,-0.017 3.156,-0.404 4.32,-1.159 C 3.427,8.827 4.322,7.792 4.949,6.477 5.114,6.14 5.255,5.771 5.37,5.372 5.485,4.971 5.581,4.523 5.655,4.025 5.729,3.527 5.782,2.977 5.815,2.373 5.848,1.768 5.865,1.075 5.865,0.293 v -16.02 H 0 Z"
             style="fill:#ffffff;fill-opacity:1;fill-rule:nonzero;stroke:none"
             id="path90" />
        </g>
        <path
           d="m 601.836,354.862 h 7.083 v -85.65 h -7.083 z"
           style="fill:#ffffff;fill-opacity:1;fill-rule:nonzero;stroke:none"
           id="path92" />
        <g
           id="g94"
           transform="translate(634.3712,269.2114)">
          <path
             d="M 0,0 H -7.363 V 72.526 H -20.347 V 85.65 H 12.955 V 72.526 H 0 Z"
             style="fill:#ffffff;fill-opacity:1;fill-rule:nonzero;stroke:none"
             id="path96" />
        </g>
        <g
           id="g98"
           transform="translate(669.5963,293.7926)">
          <path
             d="m 0,0 c 0,2.176 -0.241,3.938 -0.725,5.28 -0.482,1.346 -1.138,2.443 -1.969,3.298 -0.829,0.854 -1.761,1.547 -2.794,2.08 -1.033,0.533 -2.118,1.058 -3.257,1.57 -1.506,0.724 -2.945,1.588 -4.314,2.592 -1.371,1.001 -2.578,2.388 -3.621,4.159 -1.042,1.772 -1.872,4.024 -2.49,6.755 -0.618,2.73 -0.927,6.145 -0.927,10.242 0,4.522 0.357,8.46 1.071,11.81 0.715,3.349 1.684,6.124 2.911,8.321 1.226,2.198 2.664,3.841 4.314,4.931 1.652,1.087 3.51,1.633 5.576,1.633 2.065,0 4.14,-0.45 6.225,-1.346 2.085,-0.896 3.88,-2.048 5.386,-3.457 V 44.426 c -2.008,1.75 -3.933,3.017 -5.777,3.809 -1.844,0.789 -3.577,1.184 -5.198,1.184 -2.336,0 -4.136,-0.938 -5.401,-2.817 -1.264,-1.879 -1.897,-4.695 -1.897,-8.45 0,-2.176 0.208,-3.969 0.623,-5.377 0.415,-1.408 0.98,-2.571 1.694,-3.488 0.715,-0.92 1.535,-1.654 2.462,-2.208 0.926,-0.556 1.911,-1.069 2.954,-1.536 1.64,-0.768 3.209,-1.657 4.705,-2.657 C 1.047,21.882 2.375,20.484 3.533,18.692 4.691,16.9 5.608,14.564 6.284,11.682 6.959,8.803 7.297,5.121 7.297,0.64 c 0,-4.609 -0.386,-8.599 -1.158,-11.969 -0.772,-3.373 -1.867,-6.159 -3.287,-8.356 -1.418,-2.197 -3.142,-3.83 -5.169,-4.896 -2.027,-1.066 -4.246,-1.599 -6.66,-1.599 -2.104,0 -4.175,0.457 -6.211,1.374 -2.038,0.917 -3.731,2.21 -5.082,3.872 v 13.252 c 1.911,-1.834 3.774,-3.169 5.589,-4 1.814,-0.833 3.686,-1.249 5.617,-1.249 1.12,0 2.22,0.201 3.302,0.609 1.08,0.405 2.051,1.097 2.91,2.08 0.858,0.982 1.548,2.315 2.071,4 C -0.261,-4.557 0,-2.474 0,0"
             style="fill:#ffffff;fill-opacity:1;fill-rule:nonzero;stroke:none"
             id="path100" />
        </g>
        <g
           id="g102"
           transform="translate(98.9046,310.1483)">
          <path
             d="m 0,0 c 0,4.157 -3.37,7.527 -7.527,7.527 -4.158,0 -7.528,-3.37 -7.528,-7.527 0,-4.157 3.37,-7.527 7.528,-7.527 C -3.37,-7.527 0,-4.157 0,0 Z"
             style="fill:none;stroke:#3871c1;stroke-width:2.585;stroke-linecap:butt;stroke-linejoin:miter;stroke-miterlimit:10;stroke-dasharray:none;stroke-opacity:1"
             id="path104" />
        </g>
        <path
           d="m 206.17,288.333 h -60.128 v -6.075 h 60.128 z"
           style="fill:#ffffff;fill-opacity:1;fill-rule:nonzero;stroke:none"
           id="path106" />
        <path
           d="m 202.851,338.039 h -56.426 v -6.075 h 56.426 z"
           style="fill:#ffffff;fill-opacity:1;fill-rule:nonzero;stroke:none"
           id="path108" />
        <g
           id="g110"
           transform="translate(131.7975,335.0018)">
          <path
             d="m 0,0 c 0,4.157 -3.37,7.527 -7.527,7.527 -4.158,0 -7.528,-3.37 -7.528,-7.527 0,-4.157 3.37,-7.527 7.528,-7.527 C -3.37,-7.527 0,-4.157 0,0 Z"
             style="fill:none;stroke:#3871c1;stroke-width:2.585;stroke-linecap:butt;stroke-linejoin:miter;stroke-miterlimit:10;stroke-dasharray:none;stroke-opacity:1"
             id="path112" />
        </g>
        <path
           d="m 200.426,313.186 h -86.809 v -6.075 h 86.809 z"
           style="fill:#ffffff;fill-opacity:1;fill-rule:nonzero;stroke:none"
           id="path114" />
        <g
           id="g116"
           transform="translate(131.7975,285.2949)">
          <path
             d="m 0,0 c 0,4.157 -3.37,7.527 -7.527,7.527 -4.158,0 -7.528,-3.37 -7.528,-7.527 0,-4.157 3.37,-7.527 7.528,-7.527 C -3.37,-7.527 0,-4.157 0,0 Z"
             style="fill:none;stroke:#3871c1;stroke-width:2.585;stroke-linecap:butt;stroke-linejoin:miter;stroke-miterlimit:10;stroke-dasharray:none;stroke-opacity:1"
             id="path118" />
        </g>
        <g
           id="g120"
           transform="translate(472.0197,314.9994)">
          <path
             d="m 0,0 c 0,-74.346 -60.269,-134.615 -134.615,-134.615 -74.346,0 -134.616,60.269 -134.616,134.615 0,74.346 60.27,134.615 134.616,134.615 C -60.269,134.615 0,74.346 0,0 Z"
             style="fill:none;stroke:#ffffff;stroke-width:7;stroke-linecap:butt;stroke-linejoin:miter;stroke-miterlimit:10;stroke-dasharray:none;stroke-opacity:1"
             id="path122" />
        </g>
        <path
           d="M 150.511,337.995 H 131.32 v -6.075 h 19.191 z"
           style="fill:#3871c1;fill-opacity:1;fill-rule:nonzero;stroke:none"
           id="path124" />
        <path
           d="M 150.511,313.229 H 98.905 v -6.075 h 51.606 z"
           style="fill:#3871c1;fill-opacity:1;fill-rule:nonzero;stroke:none"
           id="path126" />
        <path
           d="m 150.511,288.324 h -19.138 v -6.075 h 19.138 z"
           style="fill:#3871c1;fill-opacity:1;fill-rule:nonzero;stroke:none"
           id="path128" />
      </g>
    </g>
  </g>
</svg>
